<svg xmlns="http://www.w3.org/2000/svg" xmlns:xlink="http://www.w3.org/1999/xlink" width="625" height="339" viewBox="0 0 625 339">
    <defs>
        <path id="a" d="M577.381.557H9.83c-24.055.473 6.077 5.457 8.071 25.79C19.897 46.68 240.806 51.304 313.166 54.08c54.063 2.07 62.783 29.94 86.73 30.025h.225c8.062-.03 17.86-3.203 31.673-11.54 55.129-33.277 144.068-27.73 167.171-50.97 4.73-4.757 6.618-8.446 6.632-11.308v-.066C605.549 1.39 587.555.5 580.33.5c-1.814 0-2.95.056-2.95.056"/>
        <path id="c" d="M4.887.543c-16.058 7.712 14.312 21.036 3.84 39.617-10.473 18.582 4.053 17.902 10.081 35.193 4.15 11.905-17.062 22.306-3.797 31.07 13.265 8.765 26.129 37.094 26.129 37.094 14.608 11.501 2.023-16.486 11.734-39.949 9.708-23.463-19.71-10.817-4.087-39.918C64.41 34.551 30.545 53.66 32.466 25.786c.6-8.728-2.497-8.417-6.742-8.106-3.501.257-7.782.513-11.412-4.303 0 0-4.068-13.067-8.437-13.067-.328 0-.658.074-.988.233"/>
        <linearGradient id="d" x1="-.001%" x2="99.999%" y1="50%" y2="50%">
            <stop offset="0%" stop-color="#3FD4E6"/>
            <stop offset="100%" stop-color="#5477FF"/>
        </linearGradient>
        <path id="f" d="M38.635 2.544c-1.316.712-2.4 1.838-3.547 3.028-2.7 2.804-6.06 6.294-14.562 6.334-4.846.022-7.5.686-8.876 2.22-1.56 1.738-1.266 4.341-.86 7.944.143 1.245.301 2.659.399 4.185.578 9.103-4.842 15.672-4.895 15.736C3.056 45.815-.933 53.748.788 58.629c.722 2.048 2.336 3.337 4.798 3.829.981.197 1.876.29 2.7.29 5.945 0 8.122-4.89 10.998-11.354a167.35 167.35 0 0 1 1.933-4.235c3.649-7.638 6.88-8.897 12.235-10.98 1.31-.51 2.791-1.088 4.419-1.812 7.671-3.42 6.186-8.457 4.875-12.904-.182-.622-.367-1.24-.524-1.853-.674-2.614.622-3.926 2.583-5.911 1.46-1.476 3.273-3.312 4.672-6.212 1.531-3.174.75-4.876-.173-5.745-.84-.788-2.151-1.174-3.712-1.174-2.058 0-4.549.67-6.957 1.976M5.796 61.432c-2.072-.416-3.42-1.476-4.01-3.147C.268 53.98 3.897 46.448 7.103 42.663c.236-.278 5.746-6.94 5.14-16.475-.099-1.55-.26-2.976-.403-4.236-.376-3.332-.648-5.74.6-7.131 1.14-1.27 3.636-1.846 8.092-1.866 8.948-.044 12.482-3.71 15.32-6.66 1.136-1.179 2.116-2.198 3.29-2.833 3.782-2.048 7.839-2.46 9.435-.959 1.212 1.14.64 3.094-.054 4.532-1.322 2.743-2.995 4.436-4.473 5.93-2.051 2.078-3.674 3.72-2.85 6.905.16.624.346 1.256.533 1.888 1.305 4.427 2.537 8.608-4.295 11.652-1.605.716-3.074 1.288-4.371 1.794-5.406 2.103-8.977 3.492-12.806 11.506a171.23 171.23 0 0 0-1.943 4.26c-2.89 6.491-4.775 10.733-10.027 10.733-.757-.001-1.585-.089-2.495-.27"/>
        <linearGradient id="g" x1=".001%" x2="99.999%" y1="50%" y2="50%">
            <stop offset="0%" stop-color="#3FD4E6"/>
            <stop offset="100%" stop-color="#5477FF"/>
        </linearGradient>
        <path id="i" d="M25.692 8.23c-1.527 5.424-4.731 13.507-14.893 21.026C1.536 36.11.221 59.532.17 60.526l1.042.053c.012-.237 1.336-23.907 10.202-30.466C21.837 22.4 25.128 14.095 26.695 8.521c1.62-5.753 10.431-7.401 10.518-7.417L37.033.06c-.39.07-9.542 1.778-11.34 8.17"/>
        <linearGradient id="j" x1=".001%" x2="100.001%" y1="50%" y2="50%">
            <stop offset="0%" stop-color="#3FD4E6"/>
            <stop offset="100%" stop-color="#5477FF"/>
        </linearGradient>
        <path id="l" d="M28.094 20.868C25.27 30.35-3.356 25.005 8.66 48.746c12.013 23.742-15.196 7.94-7.069 28.659 8.129 20.716.707 42.874 9.543 37.239 8.832-5.637 4.963-31.726 14.149-34.826 9.188-3.1 10.687-6.715 1.591-15.143-9.097-8.428 23.836-16.796 15.708-33.812-8.126-17.016 1.37-27.375-6.361-30.008-.53-.181-1.011-.267-1.447-.267-5.05-.002-4.076 11.552-6.68 20.28"/>
        <linearGradient id="m" x1=".001%" x2="99.999%" y1="50%" y2="50%">
            <stop offset="0%" stop-color="#3FD4E6"/>
            <stop offset="100%" stop-color="#5477FF"/>
        </linearGradient>
        <path id="o" d="M.758.803l9.482 35.554h21.19L40.91.803z"/>
        <linearGradient id="p" x1=".001%" x2="99.999%" y1="50.001%" y2="50.001%">
            <stop offset="0%" stop-color="#FF933F"/>
            <stop offset="100%" stop-color="#FFCD44"/>
        </linearGradient>
        <path id="r" d="M.758.803l9.482 35.554h9.798C20.038 4.677 40.911.803 40.911.803H.758z"/>
        <linearGradient id="s" x1=".001%" x2="99.999%" y1="50.001%" y2="50.001%">
            <stop offset="0%" stop-color="#C87231"/>
            <stop offset="100%" stop-color="#FFCD44"/>
        </linearGradient>
        <path id="u" d="M0 .714h67.579v59.442H0z"/>
        <path id="w" d="M.844.396h33.044v33.06H.844z"/>
    </defs>
    <g fill="none" fill-rule="evenodd">
        <g transform="translate(19 254)">
            <mask id="b" fill="#fff">
                <use xlink:href="#a"/>
            </mask>
            <path fill="#F7F7F7" d="M577.381.557H9.83c-24.055.473 6.077 5.457 8.071 25.79C19.897 46.68 240.806 51.304 313.166 54.08c54.063 2.07 62.783 29.94 86.73 30.025h.225c8.062-.03 17.86-3.203 31.673-11.54 55.129-33.277 144.068-27.73 167.171-50.97 4.73-4.757 6.618-8.446 6.632-11.308v-.066C605.549 1.39 587.555.5 580.33.5c-1.814 0-2.95.056-2.95.056" mask="url(#b)"/>
        </g>
        <g transform="translate(133 104)">
            <mask id="e" fill="#fff">
                <use xlink:href="#c"/>
            </mask>
            <path fill="url(#d)" d="M4.887.543c-16.058 7.712 14.312 21.036 3.84 39.617-10.473 18.582 4.053 17.902 10.081 35.193 4.15 11.905-17.062 22.306-3.797 31.07 13.265 8.765 26.129 37.094 26.129 37.094 14.608 11.501 2.023-16.486 11.734-39.949 9.708-23.463-19.71-10.817-4.087-39.918C64.41 34.551 30.545 53.66 32.466 25.786c.6-8.728-2.497-8.417-6.742-8.106-3.501.257-7.782.513-11.412-4.303 0 0-4.068-13.067-8.437-13.067-.328 0-.658.074-.988.233" mask="url(#e)"/>
        </g>
        <path fill="#FFF" d="M179.403 237c-6.274-4.473-13.615-35.642-14.054-54.207-.225-9.51-2.997-13.472-5.445-16.968-2.337-3.341-4.358-6.226-3.182-12.852 2.25-12.663-3.662-18.13-3.722-18.182l.684-.791c.263.233 6.42 5.87 4.06 19.159-1.1 6.191.713 8.78 3.007 12.058 2.407 3.44 5.404 7.72 5.634 17.55.472 19.924 7.978 49.353 13.615 53.373l-.597.86z"/>
        <g transform="translate(173 177)">
            <mask id="h" fill="#fff">
                <use xlink:href="#f"/>
            </mask>
            <path fill="url(#g)" d="M38.635 2.544c-1.316.712-2.4 1.838-3.547 3.028-2.7 2.804-6.06 6.294-14.562 6.334-4.846.022-7.5.686-8.876 2.22-1.56 1.738-1.266 4.341-.86 7.944.143 1.245.301 2.659.399 4.185.578 9.103-4.842 15.672-4.895 15.736C3.056 45.815-.933 53.748.788 58.629c.722 2.048 2.336 3.337 4.798 3.829.981.197 1.876.29 2.7.29 5.945 0 8.122-4.89 10.998-11.354a167.35 167.35 0 0 1 1.933-4.235c3.649-7.638 6.88-8.897 12.235-10.98 1.31-.51 2.791-1.088 4.419-1.812 7.671-3.42 6.186-8.457 4.875-12.904-.182-.622-.367-1.24-.524-1.853-.674-2.614.622-3.926 2.583-5.911 1.46-1.476 3.273-3.312 4.672-6.212 1.531-3.174.75-4.876-.173-5.745-.84-.788-2.151-1.174-3.712-1.174-2.058 0-4.549.67-6.957 1.976M5.796 61.432c-2.072-.416-3.42-1.476-4.01-3.147C.268 53.98 3.897 46.448 7.103 42.663c.236-.278 5.746-6.94 5.14-16.475-.099-1.55-.26-2.976-.403-4.236-.376-3.332-.648-5.74.6-7.131 1.14-1.27 3.636-1.846 8.092-1.866 8.948-.044 12.482-3.71 15.32-6.66 1.136-1.179 2.116-2.198 3.29-2.833 3.782-2.048 7.839-2.46 9.435-.959 1.212 1.14.64 3.094-.054 4.532-1.322 2.743-2.995 4.436-4.473 5.93-2.051 2.078-3.674 3.72-2.85 6.905.16.624.346 1.256.533 1.888 1.305 4.427 2.537 8.608-4.295 11.652-1.605.716-3.074 1.288-4.371 1.794-5.406 2.103-8.977 3.492-12.806 11.506a171.23 171.23 0 0 0-1.943 4.26c-2.89 6.491-4.775 10.733-10.027 10.733-.757-.001-1.585-.089-2.495-.27" mask="url(#h)"/>
        </g>
        <g transform="translate(178 185)">
            <mask id="k" fill="#fff">
                <use xlink:href="#i"/>
            </mask>
            <path fill="url(#j)" d="M25.692 8.23c-1.527 5.424-4.731 13.507-14.893 21.026C1.536 36.11.221 59.532.17 60.526l1.042.053c.012-.237 1.336-23.907 10.202-30.466C21.837 22.4 25.128 14.095 26.695 8.521c1.62-5.753 10.431-7.401 10.518-7.417L37.033.06c-.39.07-9.542 1.778-11.34 8.17" mask="url(#k)"/>
        </g>
        <g transform="translate(164 128)">
            <mask id="n" fill="#fff">
                <use xlink:href="#l"/>
            </mask>
            <path fill="url(#m)" d="M28.094 20.868C25.27 30.35-3.356 25.005 8.66 48.746c12.013 23.742-15.196 7.94-7.069 28.659 8.129 20.716.707 42.874 9.543 37.239 8.832-5.637 4.963-31.726 14.149-34.826 9.188-3.1 10.687-6.715 1.591-15.143-9.097-8.428 23.836-16.796 15.708-33.812-8.126-17.016 1.37-27.375-6.361-30.008-.53-.181-1.011-.267-1.447-.267-5.05-.002-4.076 11.552-6.68 20.28" mask="url(#n)"/>
        </g>
        <path fill="#FFF" d="M179.198 241c-.85-3.544-8.107-34.727-1.337-38.496 5.97-3.322 5.823-16.244 4.891-28.445-.823-10.801 13.288-15.849 13.89-16.059l.358.992c-.139.048-13.943 4.99-13.18 14.988.956 12.53 1.059 25.828-5.43 29.44-5.143 2.863-.408 27.923 1.85 37.338l-1.042.242z"/>
        <g transform="translate(154 229)">
            <mask id="q" fill="#fff">
                <use xlink:href="#o"/>
            </mask>
            <path fill="url(#p)" d="M.758.803l9.482 35.554h21.19L40.91.803z" mask="url(#q)"/>
        </g>
        <g transform="translate(154 229)">
            <mask id="t" fill="#fff">
                <use xlink:href="#r"/>
            </mask>
            <path fill="url(#s)" d="M.758.803l9.482 35.554h9.798C20.038 4.677 40.911.803 40.911.803H.758z" mask="url(#t)"/>
        </g>
        <path fill="#FFCA55" d="M317.717 118.842l-44.863.207.15 32.532.032 6.853 6.818-6.885 38.013-.175z"/>
        <path fill="#FFF" d="M298.79 136.501a3.427 3.427 0 1 1-6.852.022 3.427 3.427 0 1 1 6.853-.022M310.044 136.465a3.427 3.427 0 1 1-6.855.024 3.427 3.427 0 0 1 6.855-.024M287.796 136.536a3.427 3.427 0 1 1-6.852.022 3.426 3.426 0 1 1 6.852-.022"/>
        <path fill="#78C2FF" d="M304.401 29.905l44.862.207-.15 32.532-.032 6.853-6.817-6.885-38.012-.175z"/>
        <path fill="#FFF" d="M323.328 47.565a3.427 3.427 0 0 0 3.416 3.44 3.428 3.428 0 0 0 3.436-3.42 3.427 3.427 0 1 0-6.852-.02M312.075 47.53a3.425 3.425 0 1 0 6.852.02 3.427 3.427 0 0 0-6.853-.02M334.322 47.6a3.426 3.426 0 1 0 6.854.02 3.43 3.43 0 0 0-3.417-3.438 3.428 3.428 0 0 0-3.437 3.417"/>
        <path fill="#FFCA55" d="M516.083 20.985l-63.785.293.212 46.256.045 9.743 9.692-9.788 54.048-.25z"/>
        <path fill="#FFF" d="M489.172 46.093a4.87 4.87 0 1 1-9.742.03 4.87 4.87 0 1 1 9.742-.03M505.174 46.043a4.873 4.873 0 0 1-9.744.031 4.872 4.872 0 1 1 9.744-.031M473.542 46.143a4.873 4.873 0 0 1-9.745.03 4.874 4.874 0 0 1 9.745-.03"/>
        <path fill="#78C2FF" d="M619.136 55.127l-56.123.259.187 40.698.039 8.573 8.53-8.613 47.555-.218z"/>
        <path fill="#FFF" d="M595.46 77.22a4.289 4.289 0 0 1-4.274 4.302 4.289 4.289 0 0 1-.026-8.578 4.289 4.289 0 0 1 4.3 4.275M609.538 77.174a4.289 4.289 0 0 1-4.274 4.304 4.29 4.29 0 0 1-4.3-4.276 4.287 4.287 0 1 1 8.574-.028M581.705 77.263a4.287 4.287 0 1 1-8.574.027 4.287 4.287 0 0 1 8.573-.027"/>
        <g transform="translate(0 54.258)">
            <mask id="v" fill="#fff">
                <use xlink:href="#u"/>
            </mask>
            <path fill="#78C2FF" d="M.224.714l67.355.312-.224 48.842-.048 10.288L57.071 49.82 0 49.558z" mask="url(#v)"/>
        </g>
        <path fill="#FFF" d="M28.639 81.486a5.147 5.147 0 0 0 5.129 5.164 5.145 5.145 0 0 0 5.159-5.13 5.145 5.145 0 1 0-10.288-.034M11.745 81.432a5.145 5.145 0 0 0 10.287.033 5.145 5.145 0 0 0-5.127-5.163 5.145 5.145 0 0 0-5.16 5.13M45.146 81.538a5.148 5.148 0 0 0 5.129 5.164 5.147 5.147 0 0 0 .031-10.295 5.147 5.147 0 0 0-5.16 5.131"/>
        <path fill="#FFCA55" d="M233.217 123.94a4.461 4.461 0 0 1-2.64-5.727 4.458 4.458 0 1 1 8.365 3.086 4.455 4.455 0 0 1-5.725 2.641m8.256-1.707a7.16 7.16 0 0 0-4.237-9.193 7.153 7.153 0 0 0-9.19 4.24s-.148.285-.29 1.009a7.814 7.814 0 0 0-.113.71c-.282 2.194-.31 6.796 1.675 15.515 7.169-5.34 10.134-8.856 11.343-10.708.136-.198.261-.403.378-.617.36-.64.434-.956.434-.956M548.436 22.734l-8.087-3.515a1.309 1.309 0 1 1 1.044-2.402l5.718 2.486 4.128-9.155a1.31 1.31 0 1 1 2.389 1.077l-5.192 11.509z"/>
        <g transform="translate(530.761)">
            <mask id="x" fill="#fff">
                <use xlink:href="#w"/>
            </mask>
            <path fill="#FFCA55" d="M9.22 5.328C2.83 9.823 1.284 18.68 5.775 25.074c4.49 6.395 13.344 7.941 19.736 3.448 6.391-4.493 7.936-13.35 3.446-19.745C24.464 2.382 15.61.836 9.22 5.328m17.648 25.127c-7.457 5.243-17.786 3.437-23.026-4.022C-1.396 18.973.407 8.638 7.864 3.397 15.32-1.846 25.65-.041 30.888 7.42c5.24 7.459 3.436 17.793-4.02 23.035" mask="url(#x)"/>
        </g>
        <path fill="#FFC655" d="M214.473 97.514l-21.514-4.395 3.008-14.738 21.513 4.396z"/>
        <path fill="#FFBC55" d="M192.959 93.119l12.438-6.04 9.076 10.435z"/>
        <path fill="#FFA655" d="M217.48 82.777l-12.63 6.984-8.884-11.379z"/>
        <path fill="#FFCA55" d="M514.769 88.922c-5.637-.057-7.576 5.02-7.576 5.02s-4.69-2.744-9.046.83c-4.356 3.577-2.118 7.078-2.118 7.078 3.074 7.504 17.921 11.3 17.921 11.3s9.2-12.262 6.9-20.039c0 0-.447-4.132-6.081-4.189"/>
        <path fill="#FFD255" d="M122.629 60.947c-4.808 1.554-7.453 6.731-5.9 11.54a9.156 9.156 0 0 0 6.253 6.008l.113.031.08.086c1.115 1.222 2.656 3.107 3.66 5.146l.013.029c.311.777.966 1.366 1.846 1.66.903.3 1.927.254 2.885-.131 1.957-.785 3.017-2.749 2.364-4.378l-.006-.015-.004-.015c-.527-1.667-.83-3.674-.903-5.965l-.005-.13.071-.107a9.131 9.131 0 0 0 1.067-7.858c-1.554-4.808-6.728-7.456-11.534-5.901m8.9 25.256c-1.034.334-2.12.342-3.094.017-1.104-.367-1.935-1.119-2.34-2.114-.938-1.903-2.375-3.677-3.446-4.858a9.967 9.967 0 0 1-6.696-6.51c-1.692-5.237 1.19-10.876 6.424-12.569 5.235-1.692 10.87 1.19 12.562 6.428a9.94 9.94 0 0 1-1.089 8.448c.077 2.155.366 4.04.856 5.603.81 2.045-.453 4.476-2.822 5.425a5.033 5.033 0 0 1-.355.13"/>
        <path fill="#FFD255" d="M128.528 83.752l-5.327-9.573 2.808.878.71-1.977 1.68.894 1.28-2.464 2.932 10.572-.786.219-2.378-8.574-.705 1.357-1.573-.838-.656 1.825-1.605-.502 4.334 7.787zM135.853 86.48l-6.567 2.638-1.063-2.648 6.569-2.637z"/>
        <path fill="#FFD255" d="M136.472 84.967l-8.68 3.486-1.71-4.263 8.68-3.486z"/>
        <path fill="#F8BD6C" d="M615.164 178.831c-.022 56.338-1.6 67.366-15.74 79.988-5.537 4.943-15.721 15.212-45.106 20.325-8.821 1.536-19.371 2.606-32.042 2.929-5.17.131-9.916-.056-14.257-.53-3.64-.393-6.996-.99-10.078-1.762-32.296-8.096-34.708-35.78-20.582-59.068 3.74-6.167 8.016-11.837 12.497-17.122 6.918-8.164 14.334-15.415 21.05-22.184 6.19-6.236 11.787-12.064 15.854-17.817 1.716-2.424 3.16-4.834 4.262-7.258a121.317 121.317 0 0 1 3.458-6.977 125.615 125.615 0 0 1 5.09-8.638 125.408 125.408 0 0 1 3.819-5.597c4.123-5.702 7.187-8.904 7.187-8.904s.382-.18 1.088-.473c.375-.156.844-.346 1.397-.557a77.213 77.213 0 0 1 1.478-.545c.249-.087.507-.179.772-.27.313-.107.64-.215.978-.326.2-.064.402-.13.61-.195l.372-.115.143-.044c4.193-1.286 9.943-2.626 16.203-2.849 18.558-.662 41.57 8.494 41.547 57.99"/>
        <path fill="#B7CEFF" d="M540.036 263.646s.464 3.776 1.075 5.44c.615 1.667 3.945 5.512 2.537 9.206-1.525 4.005-8.183.145-10.9-1.078-2.716-1.221-2.097-3.438-2.386-6.155-.29-2.716-1.616-2.789-1.126-4.698.488-1.91 3.459-5.566 3.459-5.566l7.341 2.85z"/>
        <path fill="#EEA886" d="M533.977 258.819s-1.705 2.386-1.656 2.452c.046.064 7.3 4.484 7.805 3.051.4-1.14.57-2.788.57-2.788l-6.719-2.715z"/>
        <path fill="#B7CEFF" d="M509.387 266.316s-2.212 1.94-4.2 4.922c-1.988 2.983-7.264 3.14-7.488 7.213-.227 4.07 7.172 4.195 11.055 2.87 3.885-1.325 4.47-5.3 6.82-6.296 2.35-.994 3.57-1.798 3.389-3.739-.182-1.941-1.481-5.092-1.481-5.092s-1.46.466-2.317.561c-.859.095-3.746.13-5.778-.439"/>
        <path fill="#E8E8E8" d="M536.011 156.016s-1.488 8.857-2.687 14.708c-.488 2.372-.926 4.25-1.2 4.842-.344.743-3.137 3.745-6.556 7.269-6.001 6.18-13.929 13.963-13.929 13.963l-3.1-5.888s7.042-8.259 11.816-13.77c2.21-2.549 3.933-4.51 4.25-4.794.997-.893 2.156-9.695 3.785-16.946 1.627-7.254 4.89-11.262 4.89-11.262l2.731 11.878z"/>
        <path fill="#EEA886" d="M525.568 182.835c-6.001 6.179-13.929 13.962-13.929 13.962l-3.1-5.887s7.042-8.258 11.816-13.77c1.464.718 4.15 2.431 5.213 5.695M509.735 263.602l-.348 2.714s3.852 1.36 8.095-.122l.087-2.411-7.834-.18z"/>
        <path fill="#E8E8E8" d="M564.409 195.6c.222.788-40.794 0-40.794 0s11.346-8.263 12.081-10.47c.736-2.207-2.89-15.45-3.361-19.759-.378-3.448-1.326-18.876.945-21.232 2.374-2.464 10.924-5.045 10.924-5.045l12.47.463s2.056.43 3.527 1.113c1.47.684 9.882 3.68 11.247 7.884 1.366 4.206-8.392 17.722-8.392 17.722l-.048 1.604c-.038 1.327-.095 3.345-.145 5.534-.065 2.834-.122 5.954-.122 8.233 0 5.362 1.448 13.165 1.668 13.952"/>
        <path fill="#303669" d="M564.41 195.601s5.58 8.198 5.658 13.794c.078 5.597-9.9 24.342-11.41 27.024-4.54 8.061-16.99 25.45-16.99 25.45s-2.147-.055-8.843-2.655c0 0 8.282-22.97 9.331-25.354 4.452-10.113 6.937-17.287 5.442-19.021-1.497-1.735-5.58-3.474-6.761-4.5-1.182-1.023-21.77 3.894-23.928 4.453-5.586 1.45-3.04 11.175-1.804 15.535 2.068 7.293 3.875 33.634 3.875 33.634s-3.978 1.697-10.644.263c0 0-13.087-47.561-13.507-52.291-.418-4.73-.626-12.53 31.624-18.458l37.958 2.126z"/>
        <path fill="#EEA886" d="M547.626 111.994s-10.822-2.442-8.35 11.183c2.473 13.627 5.076 14.697 11.603 11.878 6.531-2.82 5.946-11.55 6.274-15.83.328-4.282-6.074-7.081-9.527-7.23"/>
        <path fill="#EEA886" d="M544.763 142.591s4.794 5.084 12.367.464c0 0-1.694-11.018-.801-16.382.891-5.368-9.883 8.313-9.883 8.313.14.074.234.587.256 1.316.02.616-.013 1.39-.112 2.183-.222 1.783-.777 3.668-1.827 4.106"/>
        <path fill="#3A3F47" d="M556.625 126.216s-.278-4.293-1.845-4.428c-1.568-.133-1.808 1.595-1.808 1.595l-1.583.299s.5-3.763-1.065-4.419c-1.567-.658-10.14 2.07-11.395.966-1.258-1.104-.666-8.737 1.606-9.782 2.27-1.044 8.547-3.384 13.142-.27 0 0 3.585-.41 4.115 2.483.532 2.894-.192 11.404-1.167 13.556"/>
        <path fill="#A77860" d="M546.59 138.485c7.814-2.41 8.402-7.119 8.411-7.192-2.574 4.424-8.3 5.009-8.3 5.009.02.616-.013 1.39-.111 2.183"/>
        <path fill="#EEA886" d="M560.33 140.73s-5.724 11.397-14.969 10.661c-9.244-.736-1.575-12.192-1.157-12.298.464-.116 9.483-2.364 16.125 1.637"/>
        <path fill="#E8E8E8" d="M518.922 195.023s28.326 3.493 45.489.578l-32.791-4.1s-.195.836-12.698 3.522"/>
        <path fill="#EEA886" d="M540.11 190.21l-2.11 1.07s.48 3.354 1.636 4.37l2.368-.604s-.494-3.678-1.895-4.836"/>
        <path fill="#E8E8E8" d="M572.887 183.343c-.422.49-5.99 2.73-12.282 5.155h-.001c-8.594 3.313-18.289 6.446-18.289 6.446l-2.205-4.733s10.15-5.52 17.011-9.39c3.241-1.828 5.745-3.289 6.101-3.626 1.103-1.051 1.389-2.736.578-5.676-.812-2.94-2.68-16.45-2.89-18.027-.21-1.575.524-5.78 4.464-5.99 3.94-.21 5.946.903 5.946.903s.989.411 1.724 9.976c.736 9.564.84 23.807-.157 24.962"/>
        <path fill="#B0B0B0" d="M563.008 167.88c-.038 1.327-.094 3.345-.145 5.534-3.845-9.43-1.623-16.955-1.586-17.081-.415 2.559 1.701 11.421 1.73 11.547M533.324 170.724c-.489 2.372-.926 4.25-1.2 4.841-1.312-6.358-.13-14.498-.13-14.498.178 3.887 1.33 9.657 1.33 9.657"/>
        <path fill="#EEA886" d="M560.604 188.498c-8.594 3.313-18.6 6.547-18.6 6.547l-1.895-4.834s10.151-5.52 17.012-9.39c0 0 2.497 1.216 3.483 7.677"/>
        <path fill="#444C94" d="M539.498 195.327l-40.261-.594 20.326 10.325z"/>
        <path fill="#303669" d="M519.563 205.059l19.935-7.725v-2.007l-21.51 7.762z"/>
        <path fill="#EEA886" d="M538.455 191.354s-2.516-.392-4.253-.797c-1.346-.314-4.69.118-5.542.982-.852.864-3.562 6.881-4.075 7.248-.512.368.264 1.218 1.163.79 0 0 .827 2.634 2.866 1.649 2.04-.987 3.423-3.14 4.491-3.517 1.068-.38 7.288-2.292 7.288-2.292s-.336-4.705-1.938-4.063"/>
        <path fill="#EEA886" d="M529.274 191.144s-1.616.781-2.037 1.129c-.422.348-2.132 1.629-2.546 1.93-.413.3.625 1.156 3.68-.167 3.057-1.324.903-2.892.903-2.892"/>
        <path fill="#303669" d="M519.563 205.059l-11.973-32.712-38.607.63 11.411 30.146z"/>
        <path fill="#518AFA" d="M495.236 186.818c1.177 2.357.821 4.923-.796 5.732-1.616.81-3.882-.445-5.061-2.802-1.177-2.355-.822-4.921.796-5.73 1.616-.81 3.882.444 5.061 2.8"/>
        <path fill="#EEA886" d="M553.005 121.565c.141-1.203 2.516-1.644 2.708.159.191 1.802-1.078 4.966-1.982 4.654-.9-.31-.923-3.156-.726-4.813"/>
        <path fill="#FAA146" d="M314.908 251.895c-.274 1.915-11.775 9.974-14.039 11.584-1.817 1.293-3.398 1.885-6.146 2.918h-.002c-6.244 1.642-45.423 13.34-45.423 13.34-.104-.398-.159-.744-.39-1.192-1.462.583-2.968.962-3.924 1.26-1.458.456-13.036.82-15.407 1.277-2.37.456-7.11 1.185-9.024-.638-1.915-1.825 1.186-5.746 3.829-6.75 2.643-1.003 12.307-1.277 14.039-1.46 1.732-.182 4.011-.82 5.105-.456.345.115 1.874-.333 3.802-1-.047-.71-.059-1.158-.059-1.158l10.287-2.967-1.905-18.223s4.476-16.875 22.358-4.002c0 0 3.99 1.174 5.356 1.538.097.026.25.03.458.014 2.728-.206 14.45-3.753 18.686-3.753 4.56 0 6.018-.275 7.659.547 1.64.82 5.015 7.205 4.74 9.121"/>
        <path fill="#FAA146" d="M296.59 280.443c-1.915 1.825-6.655 1.094-9.025.64-2.37-.457-13.949-.822-15.407-1.277-1.46-.457-4.193-1.094-6.108-2.373-.154-.103-.507-.256-1.024-.449l-.002.002-2.895 2.09-40.255-12.82c-2.412-.662-4.326-1.668-5.6-2.777-2.098-1.824-13.766-9.668-14.04-11.584-.273-1.916 3.099-8.3 4.74-9.12 1.641-.822 3.1-.548 7.657-.548 4.559 0 17.779 4.104 19.146 3.739.622-.166 1.909-.822 3.129-1.488 1.462-.8 2.827-1.612 2.827-1.612 19.578-8.745 21.758 5.563 21.758 5.563l-1.159 17.665s1.632.809 3.755 1.818l9.703 2.744-1.27.917c.55.178.938.259 1.096.205 1.095-.364 3.373.274 5.105.456 1.733.184 11.396.457 14.04 1.46 2.644 1.004 5.743 4.925 3.83 6.75"/>
        <path fill="#5478B3" d="M236.906 244.479c1.35.093 10.473 5.38 12.638 6.644-3.29-1.72-15.768-5.157-15.768-5.157.623-.166 1.91-.822 3.13-1.487M283.824 245.98s-15.718 3.815-18.593 5.413c.13-.095 8.283-6.293 12.562-7.12 0 0 4.205 1.329 5.572 1.693.097.026.25.03.458.014z"/>
        <path fill="#EEA886" d="M296.59 280.443c-1.915 1.825-6.655 1.094-9.025.64-2.37-.457-13.949-.822-15.407-1.277-.42-.132-.944-.278-1.525-.45-1.439-.426-3.22-1.013-4.583-1.923-.154-.103-.507-.256-1.024-.449l7.285-5.26.21-.151c.548.178.937.259 1.095.205 1.095-.364 3.373.274 5.105.456 1.733.184 11.396.457 14.04 1.46 2.644 1.004 5.743 4.925 3.83 6.75"/>
        <path fill="#FFF" d="M296.59 280.443c-1.915 1.825-6.655 1.094-9.025.64-2.37-.457-13.949-.822-15.407-1.277-.42-.132-.944-.278-1.525-.45l-.002-.002s3.187-3.154 1.68-7.63l.21-.151c.548.178.937.259 1.095.205 1.095-.364 3.373.274 5.105.456 1.733.184 11.396.457 14.04 1.46 2.644 1.004 5.743 4.925 3.83 6.75"/>
        <path fill="#E55353" d="M240.902 248.504c.02.049.017.085-.015.108-.181.136-.151.078.015-.108"/>
        <path fill="#5779D4" d="M280.14 234.52c-.893 1.016-4.428 3.263-7.61 5.114-.24-2.205-.607-5.676-.646-6.923-.06-1.885.728-7.297 1.701-9.365.974-2.067 1.642-7.722 1.642-7.722s8.051 10.945 9.329 12.1c1.276 1.156-1.395 3.364-4.415 6.795m-47.025 1.307c-2.28-2.736-5.416-4.393-4.628-5.608.791-1.216 7.477-12.77 7.477-12.77s3.464 7.6 4.437 11.554c.973 3.952.896 5.762.486 6.992-.368 1.102-.664 1.852-.995 5.137-2.725-1.864-5.734-4.051-6.777-5.305m60.475-8.649c-.153-.307-8.457-13.377-10.706-19.336-2.25-5.96-7.658-8.696-10.21-9.547-.912-.303-2.534-.832-4.246-1.386-3.084-.997-6.451-2.08-6.451-2.08H251.34s-3.685 1.236-7.598 2.608l-.003.002c-3.606 1.266-7.403 2.647-8.687 3.29-2.674 1.336-7.171 10.883-8.083 11.978-.912 1.094-7.923 14.094-8.933 19.092-.786 3.882 22.236 15.25 22.865 16.706.73-.81 4.082-4.025 4.082-4.025s-1.074-.676-2.586-1.672c6.168.284 21.239-.25 23.4-.14.436.021.909.009 1.394-.03l-.003.001c.669.488 4.984 4.3 4.984 4.3s10.637-4.417 15.528-9.362c6.946-7.023 6.655-8.847 5.89-10.399"/>
        <path fill="#EEA886" d="M257.927 165.581s8.318 1.31 7.052 14.33c-1.267 13.022-8.608 11.954-9.1 11.941-.49-.013-7.369.238-7.904-15.66 0 0-.236-11.754 9.952-10.61"/>
        <path fill="#EEA886" d="M265.107 176.234s.91-.973 1.245.013c.334.984-1.242 5.38-1.3 5.586 0 0-.165.382-.384.171-.219-.21.439-5.77.439-5.77M248.198 176.07s-.892-.99-1.245-.012c-.353.979 1.125 5.402 1.19 5.61 0 0 .16.385.383.18.222-.207-.328-5.778-.328-5.778"/>
        <path fill="#434343" d="M265.103 178.232l-1.19 1.591s.032-3.49-.158-4.038c-.191-.547-.485-2.22-.643-2.614-.16-.395-7.142-2.354-13.31.571 0 0 .27 2.51-.322 2.733-.59.224-.3 4.09-.3 4.09l-.98-1.105s-1.498-10.017-1.128-11.061c.37-1.044 1.55-7.32 14.203-3.594 0 0 3.946-.837 4.737 1.888.792 2.726-.91 11.539-.91 11.539"/>
        <path fill="#B57433" d="M245.689 261.49s-12.732-7.634-18.294-8.834c-5.255-1.136-7.172-3.103-7.172-3.103s8.358 0 13.919 3.953c3.775 2.684 11.547 7.984 11.547 7.984M257 266.813s22.147-11.634 31.19-14.157c5.177-1.446 7.17-3.103 7.17-3.103s-13.691 1.34-22.017 6.355c-3.969 2.39-16.342 10.905-16.342 10.905"/>
        <path fill="#EEA886" d="M248.909 278.545c-1.464.583-2.969.962-3.924 1.26-1.459.456-13.037.82-15.408 1.278-2.37.455-7.11 1.185-9.025-.64-1.914-1.824 1.186-5.745 3.83-6.749 2.643-1.003 12.307-1.277 14.039-1.46 1.732-.182 4.011-.82 5.105-.456.345.115 1.874-.332 3.802-1 .059 1.158 1.58 7.767 1.58 7.767"/>
        <path fill="#FAA146" d="M257 277.441l21.772-6.445-4.305-1.315s-17.399 6.31-17.466 7.76"/>
        <path fill="#B57433" d="M257 277.441l10.189-3.108-7.063 4.104z"/>
        <path fill="#525252" d="M250.002 251.393l-.459-.27c.183.096.337.186.459.27"/>
        <path fill="#FFF" d="M244.985 279.806c-1.459.455-13.037.82-15.408 1.277-2.37.455-7.11 1.185-9.024-.64-1.915-1.824 1.186-5.745 3.829-6.749 2.643-1.003 12.307-1.277 14.039-1.46 1.732-.182 4.011-.82 5.105-.456 0 0-2.923 4.47 1.459 8.028"/>
        <path fill="#525252" d="M237.788 249.553l-3.355-19.092 43.377-1.003-2.794 18.789s-13.845 5.069-18.545 8.028c0 0-11.877-4.882-18.683-6.722"/>
        <path fill="#6E6E6E" d="M259.025 241.975c0 1.577-1.089 2.858-2.431 2.858s-2.431-1.28-2.431-2.858 1.089-2.858 2.43-2.858c1.343 0 2.432 1.28 2.432 2.858"/>
        <path fill="#EEA886" d="M262.087 194.864a.396.396 0 0 0-.012-.035c-.52-1.16-.265-6.812-.265-6.812s-10.595-2.697-10.292-.635c.303 2.062-.913 7.694-.913 7.694l-5.434 1.861s5.79 15.555 12.446 13.548c6.655-2.005 9.167-14.11 9.167-14.11l-4.697-1.511z"/>
        <path fill="#A77860" d="M251.717 189.723s1.66 2.155 4.623 2.155c1.948 0 3.278-.48 5.22-2.373 0 0-.772 3.53-5.207 3.864 0 0-3.17.458-4.636-3.646"/>
        <path fill="#464240" d="M434.14 72.343s6.157-.645 8.376 5.304c2.217 5.948 4.307 7.896 4.568 11.021 1.056 12.639 6.957 9.78 5.297 17.065-1.66 7.286-2.809 8.39-2.809 8.39l-14.103-2.769-14.29.047s5.59-2.793 4.348-8.741c-1.246-5.949-4.347-15.698-2.595-22.34 1.75-6.64 7.528-7.47 11.208-7.977"/>
        <path fill="#75A2F3" d="M430.244 267.64s-4.422 6.077-3.794 7.057c.63.978 5.456 1.118 8.39 0 2.938-1.12 3.008-8.362 4.337-11.473.556-1.303-.635-5.147-2.307-5.425-1.674-.28-3.638.598-3.638.598s1.715 4.427-2.988 9.244"/>
        <path fill="#EEA886" d="M433.233 258.398s-.35 2.868-.908 4.897c-.56 2.028-3.565 6.644-3.426 7.204.14.56 3.915 1.066 5.453-.375 1.537-1.443 2.726-5.621 2.866-8.15.142-2.527-.348-4.176-.348-4.176s-2.168-.94-3.637.6"/>
        <path fill="#EB4747" d="M439.177 263.225v6.468h-.84v-5z"/>
        <path fill="#75A2F3" d="M441.816 267.64s-4.421 6.077-3.794 7.057c.63.978 5.456 1.118 8.391 0 2.938-1.12 3.007-8.362 4.335-11.473.556-1.303-.635-5.147-2.308-5.425-1.672-.28-3.635.598-3.635.598s1.712 4.427-2.989 9.244"/>
        <path fill="#EEA886" d="M444.805 258.398s-.35 2.868-.908 4.897c-.559 2.028-3.566 6.644-3.427 7.204.14.56 3.916 1.066 5.454-.375 1.537-1.443 2.726-5.621 2.867-8.15.14-2.527-.35-4.176-.35-4.176s-2.169-.94-3.636.6"/>
        <path fill="#EB4747" d="M450.748 263.225v6.468h-.838v-5z"/>
        <path fill="#EEA886" d="M422.116 157.689s-3.345 18.439-4.248 23.052c-.905 4.614-3.436 26.953-3.706 30.752-.273 3.8 8.247 22.072 8.78 23.332 8.914 21.098 9.942 25.873 9.942 25.873s2.927 1.834 4.28-.355c.411-.667-5.487-24.86-6.459-31.573-.903-6.242-3.255-15.88-2.621-18.072.633-2.19 6.42-32.381 7.504-33.647 1.086-1.267 2.712.723 3.345 3.528.634 2.803 1.988 27.044 2.801 30.12.814 3.074.182 13.476.634 18.723.452 5.246 2.335 29.733 2.335 29.733s3.642.652 4.003.068c.362-.582 3.515-27.197 3.607-33.437.09-6.242.186-14.849.36-17.548 1.676-25.863 4.84-29.245-.69-47.86-13.532-45.546-29.867-2.689-29.867-2.689"/>
        <path fill="#FAA146" d="M422.116 157.689s-3.345 18.439-4.248 23.052c-.905 4.614-3.436 26.953-3.706 30.752-.273 3.8 7.954 22.07 8.136 23.427.18 1.358 6.956 20.778 6.956 20.778s6.843-.117 8.709-1.892c.374-.356-6.286-18.323-7.258-25.036-.903-6.242-3.255-15.88-2.621-18.072.633-2.19 6.42-32.381 7.504-33.647 1.086-1.267 2.712.723 3.345 3.528.634 2.803 1.988 27.044 2.801 30.12.814 3.074.182 13.476.634 18.723.452 5.246-.5 23.885-.5 23.885s8.965.47 9.325-.113c.361-.581 1.028-21.168 1.12-27.408.09-6.242.186-14.849.36-17.548 1.676-25.863 4.84-29.245-.69-47.86-13.532-45.546-29.867-2.689-29.867-2.689"/>
        <path fill="#C4D9FF" d="M453.326 163.895c.522-.211-3.664-14.059-4.494-18.197-.748-3.733-3.299-7.152-.808-13.51 1.426-3.642 1.33-7.946 1.33-7.946s3.81 8.41 4.173 10.581c.362 2.171-13.17-1.779-13.357-1.478-.358.572-.753 4.235-.753 5.502 0 1.047 19.643 5.69 21.968 1.575.66-1.167-3.607-23.5-6.36-26.475-4.52-4.885-16.393-9.046-16.393-9.046s-3.254-1.748-8.982.06c-5.724 1.81-13.74 7.356-15.128 8.805-1.385 1.448-6.93 23.255-7.415 26.08-.454 2.656-.276 8.245 5.787 7.531l16.363-3.75-1.016-4.99-12.265.971c-2.504.428-1.303-1.77-.983-2.993.31-1.198 3.39-12.297 3.39-12.297-.18 3.075 2.14 13.172 3.346 16.67 1.205 3.497-1.46 22.213-1.641 24.261 0 0 9.851 8.096 33.238-1.354"/>
        <path fill="#EEA886" d="M441.304 105.925s-4.037 8.334-7.409 10.777c0 0-6.07-9.1-5.76-11.199 0 0 6.724-2.982 13.169.422M441.449 134.026s-1.87-.754-2.367-1.433c-.496-.68-2.155-1.084-3.382-.72-1.227.367-.548 5.641-.548 5.641l6.475.84-.178-4.328zM429.728 138.055s.622-3.409.473-4.038c-.15-.628 1.106-1.26 1.281.296.175 1.554.268 2.543.268 2.543l-2.022 1.199z"/>
        <path fill="#51578C" d="M432.42 140.42l4.714-.192a1.134 1.134 0 0 0 1.089-1.121l.126-10.326a1.134 1.134 0 0 0-1.17-1.148l-5.644.184a1.137 1.137 0 0 0-1.097 1.223l.804 10.333c.046.61.567 1.072 1.178 1.048"/>
        <path fill="#EEA886" d="M429.624 138.332s-.088-.969 1.77-1.855c2.469-1.178 5.76-2.375 6.323-2.065.81.444.392 1.06-1.168 1.575-1.558.514-2.073.679-2.073.679s3.05-.291 3.735.074c.685.366.723 1.208.222 1.348-.5.137-1.678.221-1.678.221s1.293.05 1.423.569c.095.386.143.936-1.082 1.164 0 0 .831.923-.415 1.514-1.246.59-3.501 1.13-4.634 1.316-2.356.386-7.675.1-7.675.1l2.184-3.7s1.217.095 2.052-.189c1.13-.386 1.016-.751 1.016-.751"/>
        <path fill="#C4D9FF" d="M428.241 138.637l1.017 4.99-10.428 2.39-.403-6.603zM440.17 133.345s-.86 1.845-.752 5.502c0 0 6.467 2.363 11.489 2.911v-6.347l-10.737-2.066zM429.257 143.628l-7.31 4.066c.051-.848.088-1.66.105-2.415l7.205-1.651z"/>
        <path fill="#C4D9FF" d="M448.473 144.169c-5.866-2.331-8.213-4.434-8.858-5.101-.138-.144-.197-.22-.197-.22l8.328 2.43h.001c.207 1.008.48 1.955.726 2.89"/>
        <path fill="#EEA886" d="M434.951 75.823s8.154 1.177 6.961 13.218c-1.194 12.045-8.39 11.088-8.87 11.078-.483-.01-7.221.251-7.804-14.444 0 0-.27-10.867 9.713-9.852"/>
        <path fill="#EEA886" d="M438.574 97.983s-.503 6.265.702 8.14c1.206 1.878-1.03 4.426-5.642 3.553-4.61-.87-4.34-3.484-4.34-3.484s1.29-3.867.912-6.962c-.377-3.093 8.368-1.247 8.368-1.247"/>
        <path fill="#464240" d="M434.019 80.188s3.81 4.007 5.58 6.036c1.768 2.028 1.972 5.948 1.972 5.948s2.983-3.643 1.735-7.886c-1.246-4.242-4.197-12.495-11.663-9.961-7.467 2.537-7.743 13.697-6.867 19.23 0 0 3.352-12.216 9.243-13.367"/>
        <path fill="#A77860" d="M430.806 99.574s3.474 1.642 6.855-.785c0 0-.94 1.942-3.428 2.217-2.488.276-3.427-1.432-3.427-1.432"/>
        <path fill="#464240" d="M429.622 101.758s-11.218 9.986-8.307 16.216c2.484 5.317 11.295 2.057 9.842-3.515-1.454-5.57-1.535-12.7-1.535-12.7"/>
        <path fill="#48484D" d="M432.677 129.808a.702.702 0 1 1-1.403 0 .702.702 0 0 1 1.403 0"/>
        <path fill="#5C5049" d="M129.275 268.51l-8.186-54.464 1.576-.242 8.185 54.463zM119.279 268.51l-8.185-54.464 1.577-.242 8.184 54.463zM70.047 268.51l-1.576-.243 8.185-54.463 1.576.242z"/>
        <path fill="#FAB46C" d="M123.65 214.601l6.412-67.492s-11.213-1.467-17.99-1.106l-10.185 68.598h21.763z"/>
        <path fill="#FAB46C" d="M101.887 214.6h21.763v-3.43h-21.763zM87.65 211.851l-3.403-64.317s28.383-3.082 45.815-.425L87.65 211.851z"/>
        <path fill="#FCCCA2" d="M110.314 126.709s4.383-12.859-3.981-16.844c-8.364-3.988-15.464 1.776-16.805 4.893-1.342 3.117-.987 8.787.157 12.741 1.144 3.954.977 9.974-1.508 11.985-2.484 2.014-5.566 5.357-5.414 12.162.094 4.221 16.604-10.8 16.604-10.8l10.947-14.137z"/>
        <path fill="#D4C3BD" d="M99.155 265.074s-.26 9.088 1.036 9.633c1.297.547 6.206-2.612 8.37-5.738 2.167-3.124-2.713-10.398-3.513-14.409-.335-1.682-4.149-4.702-6.009-3.838-1.86.867-3.217 3.086-3.217 3.086s4.732 3.245 3.333 11.266"/>
        <path fill="#DE9673" d="M95.822 253.808s1.61 3.1 2.438 5.506c.829 2.407.984 9.07 1.505 9.533.52.463 4.635-1.614 5.185-4.105.548-2.492-1.12-7.472-2.708-10.09-1.587-2.618-3.203-3.93-3.203-3.93s-2.805.546-3.217 3.086"/>
        <path fill="#D4C3BD" d="M105.048 254.56l4.421 6.454-.838.573-3.417-4.988z"/>
        <path fill="#DE9673" d="M89.137 183.198s2.163 3.65 0 6.31c-2.162 2.659-16.693 9.962-16.587 14.18.106 4.219 2.768 10.821 3.725 12.496.956 1.675 4.486 8.625 6.32 12.694 1.833 4.067 12.436 23.528 14.51 27.914 2.071 4.388.796-17.545.796-17.545l-10.602-31.106 24.773-24.146s-3-6.677-22.935-.797"/>
        <path fill="#2F4563" d="M98.562 142.004s-6.873 1.525-9.602 3.121c-2.728 1.595-8.787 8.933-8.787 12.088 0 3.155 26.497 6.103 26.497 6.103l5.023 18.345s13.393-3.271 14.988-5.983c1.593-2.711-5.275-22.013-6.232-26.081-.955-4.067-5.967-6.81-11.546-7.593-5.581-.78-10.341 0-10.341 0"/>
        <path fill="#EEA886" d="M114.809 183.8s-.479 3.137.796 4.467c1.277 1.33 7.152 9.081 4.04 16.697-2.857 6.993-8.398 6.86-8.398 6.86h-8.574s2.489 12.588 1.686 20.881c-.805 8.296-4.587 27.238-4.666 28.195-.08.957-3.626 3.95-4.662 2.434 0 0-.096-11.406-.654-15.713-.558-4.307-2.933-21.535-3.652-24.086-.716-2.553-4.941-10.29-4.941-11.088 0-.797-4.128-13.284 4.882-16.474 9.007-3.191 12.192-12.105 24.143-12.172"/>
        <path fill="#E6D3CC" d="M90.762 272.13s-5.914 6.902-5.25 8.143c.666 1.242 6.468 1.873 10.116.806 3.647-1.069 4.426-9.793 6.326-13.415.796-1.517-.271-6.267-2.26-6.765-1.991-.496-4.442.376-4.442.376s1.64 5.5-4.49 10.856"/>
        <path fill="#EEA886" d="M95.252 261.275s-.696 3.424-1.566 5.816c-.868 2.392-4.935 7.669-4.82 8.357.114.688 4.618 1.662 6.61.07 1.993-1.592 3.827-6.513 4.238-9.549.41-3.034-.021-5.07-.021-5.07s-2.524-1.34-4.44.376"/>
        <path fill="#E6D3CC" d="M101.954 267.663l-.62 7.8-1.012-.08.48-6.029z"/>
        <path fill="#2F4563" d="M119.645 204.964c-2.697 7.086-8.398 6.86-8.398 6.86h-8.574s-3.577-5.67-12.336-6.646c-1.94-.215-4.138-.2-6.605.158l-.09.013c-11.637 1.725-9.39 5.999-9.355 6.11-.965-2.362-1.982-6.12-1.738-8.144 1.117-9.216 14.427-11.149 16.589-13.807 2.161-2.659 0-6.31 0-6.31 19.935-5.88 22.934.797 22.934.797.874-.121 3.113-1.412 4.066-1.418 0 0 .998 2.18 1.7 4.148.62 1.736 4.734 10.55 1.807 18.24"/>
        <path fill="#DED1C5" d="M111.374 154.223l2.949 27.439H75.499l-2.95-27.439z"/>
        <path fill="#DED1C5" d="M110.928 181.66h6.485v-2.468h-6.485z"/>
        <path fill="#BC8551" d="M48.743 185.396H155.68v-3.734H48.743z"/>
        <path fill="#EEA886" d="M102.859 112.057s8.697 2.575 7.455 14.652c-1.244 12.077-6.924 11.455-7.455 11.543-.534.09-7.28.534-9.41-14.118-2.13-14.652 9.41-12.077 9.41-12.077"/>
        <path fill="#EEA886" d="M107.003 136.032s-.46 3.998.31 6.485c.769 2.487-10.133 2.554-10.126.51.007-2.323 1.115-4.264.07-8.243-1.043-3.983 9.746 1.248 9.746 1.248"/>
        <path fill="#FCCCA2" d="M100.612 117.442s4.728 7.522 9.702 9.267c0 0 2.716-12.621-8.502-15.267-11.22-2.644-9.462 12.75-8.625 16.853 0 0 2.336-6.038 7.425-10.853"/>
        <path fill="#A77860" d="M98.548 136.541s3.441 3.588 7.843.374c0 0-.364 2.293-3.529 2.59-3.166.295-4.314-2.964-4.314-2.964"/>
        <path fill="#23344A" d="M94.274 116.309s2.488-4.82 6.688-5.036c4.202-.215 6.7 3.43 6.7 3.43s-1.64-4.104-6.695-4.104c-5.053 0-6.693 5.71-6.693 5.71"/>
        <path fill="#EEA886" d="M108.425 141.94s-.154 8.36-6.78 8.61c-6.626.247-5.247-8.019-5.247-8.019s4.848-1.964 12.027-.59"/>
        <path fill="#807066" d="M152.934 271.184h2.747v-85.788h-2.747zM48.743 271.184h2.746v-85.788h-2.746z"/>
        <path fill="#EEA886" d="M373.042 109.58s8.507 2.499 7.987 14.069c-.523 11.57-7.987-14.07-7.987-14.07"/>
        <path fill="#EEA886" d="M372.258 109.58s.657.892-.165 6.65c-.82 5.757.736 8.164.921 10.56.186 2.396 2.994 17.87 3.07 18.554.076.685.453 8.92 1.55 11.106 1.095 2.185 9.147 14.572 9.255 15.19.108.62 3.91-2.156 3.91-2.156s-7.23-15.05-7.699-16.534c-.581-1.843-2.362-6.407-2.47-8.795-.268-5.838.261-19.396.056-22.35-.384-5.528-4.739-11.347-8.428-12.226"/>
        <path fill="#EEA987" d="M383.102 158.985s1.266 2.785 2.016 2.958c.747.173 1.64 1.1 2.281 1.385.641.285 2.66.44 3.203.967.22.216 1.072 2.074 1.568 2.462.499.39 1.6 1.059 1.259 1.477-.34.417-1.486.09-1.486.09s.432.383.248.845c-.36.9-.963.94-.963.94s.193.676-.051 1.011c-.537.738-1.123.76-1.123.76s-.05.522-.518.93c-.6.521-1.341.224-1.341.224s-.598.83-1.151.667c-.555-.16-.877-.574-1.272-.815-.395-.243-3.16-3.422-4.18-6.396-1.02-2.976-2.79-5.392-2.79-5.392l4.3-2.113z"/>
        <path fill="#214361" d="M375.322 180.424l-15.098-18.626 31.067-25.21 15.1 18.625z"/>
        <path fill="#DB9C7C" d="M391.789 167.955s-2.409-2.677-3.609-2.625c-1.2.05-.381 1.064-.381 1.064s-.793-1.015-1.646-.477c-.854.538.165 1.675.165 1.675s-.802-.61-1.434.234c-.632.848.422 1.6.422 1.6s-1.59-.234-1.248 1.063c.573 2.191 2.939 3.262 2.939 3.262s.661.184 1.213-.673c0 0 1.485.57 1.893-1.153 0 0 1.737-.4 1.185-1.789 0 0 1.83-.64.5-2.18"/>
        <path fill="#FCCCA2" d="M365.264 75.775S352.96 74.751 353.297 87.7c.337 12.948 2.388 14.897-.008 24.047-2.394 9.15 11.996-5.196 11.996-5.196l-.02-30.776z"/>
        <path fill="#EEA987" d="M351.858 155.792s-4.53 5.776-6.13 9.6c-1.6 3.821-4.264 12.198-3.908 18.686.355 6.489 2.486 18.665 1.864 21.42-.622 2.755-1.242 8.445-1.909 10.4-.667 1.954-3.33 7.642-3.6 13.509-.264 5.866 3.734 31.642 3.555 34.04-.178 2.401 4.532.979 4.532.979s1.597-23.286 2.486-27.286c.888-4 1.954-17.598 2.755-18.576.8-.978 2.986-11.11 2.646-12.71-.338-1.6 8.724-25.598 9.257-30.398.533-4.798 13.895-19.664 13.895-19.664s-11.673-4.466-25.443 0"/>
        <path fill="#EEA987" d="M373.48 155.792s.231 2.422.499 3.31c.266.89 6.396 23.555 7.018 32.265.622 8.71 2.22 16.098 2.487 17.959.266 1.86-.267 8.082-.8 9.683-.531 1.599 2.667 39.373 2.932 40.263.267.887-2.132 1.155-3.819.887-1.69-.266-10.217-27.73-9.683-32.35.533-4.623 1.064-14.478-.445-18.483-1.51-4.005-15.102-32.981-15.191-34.758-.089-1.778-5.882-32.397 17.003-18.776M346.177 261.592s.437 3.068.915 3.906c.48.837 1.793 5.1 2.392 5.897.597.798 1.911 6.775 0 7.491-1.913.718-6.415 1.914-7.927-.477a9.839 9.839 0 0 1-1.474-6.615c.24-1.833 2.056-10.247 2.032-11.079-.027-.832 4.062.877 4.062.877"/>
        <path fill="#FFF" d="M348.72 269.74s.205 4.644-3.3 4.644-5.058-4.227-5.058-4.227-1.194 2.075 0 6.499c1.194 4.422 6.174 3.506 7.289 3.346 1.115-.16 6.401-1.558 1.07-10.263M385.238 257.42s2.478 4.434 3.948 5.333c1.835 1.12 5.393 4.711 6.635 4.878 1.245.165 5.713.958 4.85 3.482-.708 2.067-11.365 1.772-12.567.736-1.202-1.038-4.797-4.758-6.248-4.675-1.45.083-.91 5.366-.91 5.366h-1.576s-.55-5.14-.617-6.024c-.196-2.616 1.67-4.541 1.752-6.032.083-1.494.167-2.606.167-2.606l4.566-.458z"/>
        <path fill="#EEA987" d="M395.467 267.509s-3.515 1.214-6.218-.34c-2.703-1.555-7.892-3.916-9.727-3.933 0 0 .998-3.062 1.02-3.405.021-.343.13-1.954.13-1.954l4.538-.727s2.941 4.32 4.238 5.338c1.298 1.019 4.621 3.557 6.019 5.02"/>
        <path fill="#5779D4" d="M377.377 155.392s1.265 5.266 1.731 6.8c.467 1.532 3.461 25.318 4.198 40.197 0 0-17.923 6.798-42.575 5.665 0 0-.6-27.33 1.664-35.063 2.266-7.733 6.368-14.968 9.463-17.2 2.754-1.985 25.52-.399 25.52-.399"/>
        <path fill="#E8E8E8" d="M380.457 124.256c-.201 3.133-1.482 5.138-1.749 6.271-.266 1.133 0 3.733-.332 6.334-.335 2.6-1.332 14.998-.999 18.531.332 3.533-24.24 1.938-26.103.87 0 0 4.138-7.403 4.249-10.47.037-1.053.667-4.332-1.067-6.731-.914-1.267-2.611-5.299-4.304-8.247 0 0 .315-.611 0 0-.656-1.143-1.343-2.283-1.823-3.131-.626-1.109-.974-2.421-.974-2.421s-1.093-13.599 1.904-15.132c3-1.534 4.597-1.8 7.53-1.934 2.93-.133 4.865-.733 4.865-.733l6.86.733s2.422 1.135 4.155 1.27c1.732.132 3.849 3.897 4.897 6.624.864 2.249 3.091 5.033 2.891 8.166"/>
        <path fill="#EEA886" d="M352.984 108.71s-5.43.452-7.474 5.446c-2.041 4.994-1.87 10.064-2.312 11.91-.443 1.844-1.09 12.53-1.556 14.109-.465 1.578-2.064 8.9-2.421 14.82-.358 5.919.523 18.403.523 18.403l3.01-1.464s2.68-18.51 3.84-22.424c.995-3.346.995-9.038 1.553-11.094.556-2.055 3.967-14.422 4.516-15.677.844-1.92 4.989-14.09.321-14.029M364.06 77.087c3.05-.5 10.028.265 12.007 8.276 0 0 .004 2.221-.332 4.004-.334 1.782 1.789 6.684 1.415 6.98-.373.296-2.001.808-2.001.808s-1.154 5.751-3.107 5.927c-1.95.175-9.495-.504-13.753-7.008-4.261-6.505-6.543-16.971 5.772-18.987"/>
        <path fill="#EEA886" d="M369.122 100.852s-.149.805-.29 1.99c-.07.607-.14 1.31-.184 2.055-.121 2.066-.06 4.455.644 5.97 0 0-3.827 2.33-7.921-3.367 0 0 .404-7.07-1.948-10.827-2.352-3.757 9.7 4.18 9.7 4.18"/>
        <path fill="#FCCCA2" d="M376.066 85.363s-4.592 3.965-9.453 5.216c-4.861 1.251-7.435 6.714-7.435 6.714s-8.602-8.583-3.411-16.914c5.19-8.332 20.29-4.615 20.3 4.984"/>
        <path fill="#A77860" d="M368.833 102.842c-.072.607-.141 1.31-.185 2.056-4.287-2.082-6.65-4.934-6.65-4.934 2.52 1.805 6.835 2.878 6.835 2.878"/>
        <path fill="#FCCCA2" d="M365.72 90.864s-4.974 13.38-4.378 16.6c0 0-2.633-.454-7.32.98 0 0 2.267-23.869 11.698-17.58"/>
        <path fill="#EEA886" d="M359.682 107.895s1.637 10.033 7.7 8.901c6.064-1.135 1.466-8.486 1.466-8.486s-2.694-2.257-9.166-.415M342.827 171.427s.477 1.588 1.226 3.187c.364.781.911 6.037.932 6.721.017.573-.387.264-.61-.098-.126-.208-.607-2.003-1.017-2.946-.345-.791-.612-1.077-.735-.805-.124.276-.13 3.68.29 5.103.418 1.423.344 4.781-.452 4.357-.798-.424-3.03-6.319-3.052-8.6-.02-2.282.329-5.037.329-5.037l3.089-1.882z"/>
    </g>
</svg>
